<svg width="239" height="28" viewBox="0 0 239 28" fill="none" xmlns="http://www.w3.org/2000/svg">
<path d="M5.008 27.1471L13.104 16.7151L13.84 17.4831C13.52 17.7177 13.2107 17.9097 12.912 18.0591C12.6133 18.2084 12.2933 18.3151 11.952 18.3791C11.6107 18.4431 11.248 18.4751 10.864 18.4751C9.41333 18.4751 8.12267 18.1444 6.992 17.4831C5.86133 16.8217 4.96533 15.9257 4.304 14.7951C3.664 13.6431 3.344 12.3417 3.344 10.8911C3.344 9.35506 3.696 7.98973 4.4 6.79506C5.12533 5.6004 6.10667 4.66173 7.344 3.97906C8.60267 3.27506 10.032 2.92306 11.632 2.92306C13.2533 2.92306 14.6827 3.2644 15.92 3.94706C17.1573 4.62973 18.128 5.5684 18.832 6.76306C19.5573 7.9364 19.92 9.29106 19.92 10.8271C19.92 11.5951 19.8347 12.3631 19.664 13.1311C19.4933 13.8991 19.184 14.7204 18.736 15.5951C18.3093 16.4484 17.6907 17.4191 16.88 18.5071L10.224 27.1471H5.008ZM11.632 14.8271C12.3787 14.8271 13.04 14.6671 13.616 14.3471C14.2133 14.0057 14.6827 13.5364 15.024 12.9391C15.3653 12.3204 15.536 11.6271 15.536 10.8591C15.536 10.0484 15.3547 9.3444 14.992 8.74706C14.6507 8.14973 14.192 7.6804 13.616 7.33906C13.04 6.99773 12.3787 6.82706 11.632 6.82706C10.9067 6.82706 10.2453 6.99773 9.648 7.33906C9.05067 7.6804 8.57067 8.14973 8.208 8.74706C7.86667 9.3444 7.696 10.0484 7.696 10.8591C7.696 11.6271 7.86667 12.3204 8.208 12.9391C8.57067 13.5364 9.05067 14.0057 9.648 14.3471C10.2453 14.6671 10.9067 14.8271 11.632 14.8271ZM24.258 27.1471L32.354 16.7151L33.09 17.4831C32.77 17.7177 32.4607 17.9097 32.162 18.0591C31.8633 18.2084 31.5433 18.3151 31.202 18.3791C30.8607 18.4431 30.498 18.4751 30.114 18.4751C28.6633 18.4751 27.3727 18.1444 26.242 17.4831C25.1113 16.8217 24.2153 15.9257 23.554 14.7951C22.914 13.6431 22.594 12.3417 22.594 10.8911C22.594 9.35506 22.946 7.98973 23.65 6.79506C24.3753 5.6004 25.3567 4.66173 26.594 3.97906C27.8527 3.27506 29.282 2.92306 30.882 2.92306C32.5033 2.92306 33.9327 3.2644 35.17 3.94706C36.4073 4.62973 37.378 5.5684 38.082 6.76306C38.8073 7.9364 39.17 9.29106 39.17 10.8271C39.17 11.5951 39.0847 12.3631 38.914 13.1311C38.7433 13.8991 38.434 14.7204 37.986 15.5951C37.5593 16.4484 36.9407 17.4191 36.13 18.5071L29.474 27.1471H24.258ZM30.882 14.8271C31.6287 14.8271 32.29 14.6671 32.866 14.3471C33.4633 14.0057 33.9327 13.5364 34.274 12.9391C34.6153 12.3204 34.786 11.6271 34.786 10.8591C34.786 10.0484 34.6047 9.3444 34.242 8.74706C33.9007 8.14973 33.442 7.6804 32.866 7.33906C32.29 6.99773 31.6287 6.82706 30.882 6.82706C30.1567 6.82706 29.4953 6.99773 28.898 7.33906C28.3007 7.6804 27.8207 8.14973 27.458 8.74706C27.1167 9.3444 26.946 10.0484 26.946 10.8591C26.946 11.6271 27.1167 12.3204 27.458 12.9391C27.8207 13.5364 28.3007 14.0057 28.898 14.3471C29.4953 14.6671 30.1567 14.8271 30.882 14.8271ZM59.7875 27.5311C58.0808 27.5311 56.5022 27.2217 55.0515 26.6031C53.6008 25.9844 52.3315 25.1204 51.2435 24.0111C50.1555 22.9017 49.3022 21.6004 48.6835 20.1071C48.0862 18.6137 47.7875 16.9817 47.7875 15.2111C47.7875 13.4404 48.0755 11.8084 48.6515 10.3151C49.2488 8.8004 50.0808 7.49906 51.1475 6.41106C52.2355 5.30173 53.5048 4.4484 54.9555 3.85106C56.4062 3.2324 57.9848 2.92306 59.6915 2.92306C61.3982 2.92306 62.9235 3.21106 64.2675 3.78706C65.6328 4.36306 66.7848 5.13106 67.7235 6.09106C68.6622 7.02973 69.3342 8.0644 69.7395 9.19506L65.8675 11.0511C65.4195 9.81373 64.6622 8.81106 63.5955 8.04306C62.5288 7.27506 61.2275 6.89106 59.6915 6.89106C58.1982 6.89106 56.8755 7.24306 55.7235 7.94706C54.5928 8.65106 53.7075 9.62173 53.0675 10.8591C52.4488 12.0964 52.1395 13.5471 52.1395 15.2111C52.1395 16.8751 52.4595 18.3364 53.0995 19.5951C53.7608 20.8324 54.6675 21.8031 55.8195 22.5071C56.9715 23.2111 58.2942 23.5631 59.7875 23.5631C61.0035 23.5631 62.1235 23.3284 63.1475 22.8591C64.1715 22.3684 64.9928 21.6857 65.6115 20.8111C66.2302 19.9151 66.5395 18.8591 66.5395 17.6431V15.8191L68.5235 17.5471H59.6915V13.8671H70.8915V16.2671C70.8915 18.1017 70.5822 19.7231 69.9635 21.1311C69.3448 22.5391 68.5022 23.7231 67.4355 24.6831C66.3902 25.6217 65.2062 26.3364 63.8835 26.8271C62.5608 27.2964 61.1955 27.5311 59.7875 27.5311ZM82.2393 27.5311C80.4473 27.5311 78.8793 27.1257 77.5353 26.3151C76.1913 25.5044 75.1459 24.4057 74.3993 23.0191C73.6526 21.6324 73.2793 20.0964 73.2793 18.4111C73.2793 16.6617 73.6526 15.1151 74.3993 13.7711C75.1673 12.4057 76.2019 11.3284 77.5033 10.5391C78.8259 9.74973 80.2979 9.35506 81.9193 9.35506C83.2846 9.35506 84.4793 9.57906 85.5033 10.0271C86.5486 10.4751 87.4339 11.0937 88.1593 11.8831C88.8846 12.6724 89.4393 13.5791 89.8233 14.6031C90.2073 15.6057 90.3993 16.6937 90.3993 17.8671C90.3993 18.1657 90.3779 18.4751 90.3353 18.7951C90.3139 19.1151 90.2606 19.3924 90.1753 19.6271H76.7352V16.4271H87.8073L85.8233 17.9311C86.0153 16.9497 85.9619 16.0751 85.6633 15.3071C85.3859 14.5391 84.9166 13.9311 84.2553 13.4831C83.6153 13.0351 82.8366 12.8111 81.9193 12.8111C81.0446 12.8111 80.2659 13.0351 79.5833 13.4831C78.9006 13.9097 78.3779 14.5497 78.0153 15.4031C77.6739 16.2351 77.5459 17.2484 77.6313 18.4431C77.5459 19.5097 77.6846 20.4591 78.0473 21.2911C78.4313 22.1017 78.9859 22.7311 79.7113 23.1791C80.4579 23.6271 81.3113 23.8511 82.2713 23.8511C83.2313 23.8511 84.0419 23.6484 84.7033 23.2431C85.3859 22.8377 85.9193 22.2937 86.3033 21.6111L89.6953 23.2751C89.3539 24.1071 88.8206 24.8431 88.0953 25.4831C87.3699 26.1231 86.5059 26.6244 85.5033 26.9871C84.5219 27.3497 83.4339 27.5311 82.2393 27.5311ZM93.577 27.1471V9.73906H97.513V13.1631L97.193 12.5551C97.5983 11.5097 98.2597 10.7204 99.177 10.1871C100.116 9.6324 101.204 9.35506 102.441 9.35506C103.721 9.35506 104.852 9.6324 105.833 10.1871C106.836 10.7417 107.614 11.5204 108.169 12.5231C108.724 13.5044 109.001 14.6457 109.001 15.9471V27.1471H104.809V16.9391C104.809 16.1711 104.66 15.5097 104.361 14.9551C104.062 14.4004 103.646 13.9737 103.113 13.6751C102.601 13.3551 101.993 13.1951 101.289 13.1951C100.606 13.1951 99.9983 13.3551 99.465 13.6751C98.9317 13.9737 98.5157 14.4004 98.217 14.9551C97.9183 15.5097 97.769 16.1711 97.769 16.9391V27.1471H93.577ZM120.802 27.5311C119.01 27.5311 117.442 27.1257 116.098 26.3151C114.754 25.5044 113.708 24.4057 112.962 23.0191C112.215 21.6324 111.842 20.0964 111.842 18.4111C111.842 16.6617 112.215 15.1151 112.962 13.7711C113.73 12.4057 114.764 11.3284 116.066 10.5391C117.388 9.74973 118.86 9.35506 120.482 9.35506C121.847 9.35506 123.042 9.57906 124.066 10.0271C125.111 10.4751 125.996 11.0937 126.722 11.8831C127.447 12.6724 128.002 13.5791 128.386 14.6031C128.77 15.6057 128.962 16.6937 128.962 17.8671C128.962 18.1657 128.94 18.4751 128.898 18.7951C128.876 19.1151 128.823 19.3924 128.738 19.6271H115.298V16.4271H126.37L124.386 17.9311C124.578 16.9497 124.524 16.0751 124.226 15.3071C123.948 14.5391 123.479 13.9311 122.818 13.4831C122.178 13.0351 121.399 12.8111 120.482 12.8111C119.607 12.8111 118.828 13.0351 118.146 13.4831C117.463 13.9097 116.94 14.5497 116.578 15.4031C116.236 16.2351 116.108 17.2484 116.194 18.4431C116.108 19.5097 116.247 20.4591 116.61 21.2911C116.994 22.1017 117.548 22.7311 118.274 23.1791C119.02 23.6271 119.874 23.8511 120.834 23.8511C121.794 23.8511 122.604 23.6484 123.266 23.2431C123.948 22.8377 124.482 22.2937 124.866 21.6111L128.258 23.2751C127.916 24.1071 127.383 24.8431 126.658 25.4831C125.932 26.1231 125.068 26.6244 124.066 26.9871C123.084 27.3497 121.996 27.5311 120.802 27.5311ZM132.14 27.1471V9.73906H136.076V13.6111L135.756 13.0351C136.161 11.7337 136.79 10.8271 137.644 10.3151C138.518 9.80306 139.564 9.54706 140.78 9.54706H141.804V13.2591H140.3C139.105 13.2591 138.145 13.6324 137.42 14.3791C136.694 15.1044 136.332 16.1284 136.332 17.4511V27.1471H132.14ZM149.388 27.5311C148.172 27.5311 147.116 27.3284 146.22 26.9231C145.324 26.5177 144.631 25.9417 144.14 25.1951C143.65 24.4271 143.404 23.5417 143.404 22.5391C143.404 21.5791 143.618 20.7257 144.044 19.9791C144.471 19.2111 145.132 18.5711 146.028 18.0591C146.924 17.5471 148.055 17.1844 149.42 16.9711L155.116 16.0431V19.2431L150.22 20.0751C149.388 20.2244 148.77 20.4911 148.364 20.8751C147.959 21.2591 147.756 21.7604 147.756 22.3791C147.756 22.9764 147.98 23.4564 148.428 23.8191C148.898 24.1604 149.474 24.3311 150.156 24.3311C151.031 24.3311 151.799 24.1497 152.46 23.7871C153.143 23.4031 153.666 22.8804 154.028 22.2191C154.412 21.5577 154.604 20.8324 154.604 20.0431V15.5631C154.604 14.8164 154.306 14.1977 153.708 13.7071C153.132 13.1951 152.364 12.9391 151.404 12.9391C150.508 12.9391 149.708 13.1844 149.004 13.6751C148.322 14.1444 147.82 14.7737 147.5 15.5631L144.076 13.8991C144.418 12.9817 144.951 12.1924 145.676 11.5311C146.423 10.8484 147.298 10.3151 148.3 9.93106C149.303 9.54706 150.391 9.35506 151.564 9.35506C152.994 9.35506 154.252 9.62173 155.34 10.1551C156.428 10.6671 157.271 11.3924 157.868 12.3311C158.487 13.2484 158.796 14.3257 158.796 15.5631V27.1471H154.828V24.1711L155.724 24.1071C155.276 24.8537 154.743 25.4831 154.124 25.9951C153.506 26.4857 152.802 26.8697 152.012 27.1471C151.223 27.4031 150.348 27.5311 149.388 27.5311ZM170.294 27.3391C168.332 27.3391 166.806 26.8057 165.718 25.7391C164.652 24.6511 164.118 23.1257 164.118 21.1631V13.4831H161.11V9.73906H161.43C162.284 9.73906 162.945 9.51506 163.414 9.06706C163.884 8.61906 164.118 7.9684 164.118 7.11506V5.77106H168.31V9.73906H172.31V13.4831H168.31V20.9391C168.31 21.5151 168.406 22.0057 168.598 22.4111C168.812 22.8164 169.132 23.1257 169.558 23.3391C170.006 23.5524 170.572 23.6591 171.254 23.6591C171.404 23.6591 171.574 23.6484 171.766 23.6271C171.98 23.6057 172.182 23.5844 172.374 23.5631V27.1471C172.076 27.1897 171.734 27.2324 171.35 27.2751C170.966 27.3177 170.614 27.3391 170.294 27.3391ZM175.577 27.1471V9.73906H179.769V27.1471H175.577ZM175.577 7.78706V3.30706H179.769V7.78706H175.577ZM192.152 27.5311C190.445 27.5311 188.888 27.1364 187.48 26.3471C186.093 25.5577 184.984 24.4804 184.152 23.1151C183.341 21.7497 182.936 20.1924 182.936 18.4431C182.936 16.6937 183.341 15.1364 184.152 13.7711C184.984 12.4057 186.093 11.3284 187.48 10.5391C188.866 9.74973 190.424 9.35506 192.152 9.35506C193.858 9.35506 195.405 9.74973 196.792 10.5391C198.178 11.3284 199.277 12.4057 200.088 13.7711C200.92 15.1151 201.336 16.6724 201.336 18.4431C201.336 20.1924 200.92 21.7497 200.088 23.1151C199.256 24.4804 198.146 25.5577 196.76 26.3471C195.373 27.1364 193.837 27.5311 192.152 27.5311ZM192.152 23.6911C193.09 23.6911 193.912 23.4671 194.616 23.0191C195.341 22.5711 195.906 21.9524 196.312 21.1631C196.738 20.3524 196.952 19.4457 196.952 18.4431C196.952 17.4191 196.738 16.5231 196.312 15.7551C195.906 14.9657 195.341 14.3471 194.616 13.8991C193.912 13.4297 193.09 13.1951 192.152 13.1951C191.192 13.1951 190.349 13.4297 189.624 13.8991C188.898 14.3471 188.322 14.9657 187.896 15.7551C187.49 16.5231 187.288 17.4191 187.288 18.4431C187.288 19.4457 187.49 20.3524 187.896 21.1631C188.322 21.9524 188.898 22.5711 189.624 23.0191C190.349 23.4671 191.192 23.6911 192.152 23.6911ZM204.515 27.1471V9.73906H208.451V13.1631L208.131 12.5551C208.536 11.5097 209.197 10.7204 210.115 10.1871C211.053 9.6324 212.141 9.35506 213.379 9.35506C214.659 9.35506 215.789 9.6324 216.771 10.1871C217.773 10.7417 218.552 11.5204 219.107 12.5231C219.661 13.5044 219.939 14.6457 219.939 15.9471V27.1471H215.747V16.9391C215.747 16.1711 215.597 15.5097 215.299 14.9551C215 14.4004 214.584 13.9737 214.051 13.6751C213.539 13.3551 212.931 13.1951 212.227 13.1951C211.544 13.1951 210.936 13.3551 210.403 13.6751C209.869 13.9737 209.453 14.4004 209.155 14.9551C208.856 15.5097 208.707 16.1711 208.707 16.9391V27.1471H204.515ZM230.107 27.5311C228.251 27.5311 226.63 27.0937 225.243 26.2191C223.878 25.3231 222.939 24.1177 222.427 22.6031L225.563 21.0991C226.011 22.0804 226.63 22.8484 227.419 23.4031C228.23 23.9577 229.126 24.2351 230.107 24.2351C230.875 24.2351 231.483 24.0644 231.931 23.7231C232.379 23.3817 232.603 22.9337 232.603 22.3791C232.603 22.0377 232.507 21.7604 232.315 21.5471C232.145 21.3124 231.899 21.1204 231.579 20.9711C231.281 20.8004 230.95 20.6617 230.587 20.5551L227.739 19.7551C226.267 19.3284 225.147 18.6777 224.379 17.8031C223.633 16.9284 223.259 15.8937 223.259 14.6991C223.259 13.6324 223.526 12.7044 224.059 11.9151C224.614 11.1044 225.371 10.4751 226.331 10.0271C227.313 9.57906 228.433 9.35506 229.691 9.35506C231.334 9.35506 232.785 9.74973 234.043 10.5391C235.302 11.3284 236.198 12.4377 236.731 13.8671L233.531 15.3711C233.233 14.5817 232.731 13.9524 232.027 13.4831C231.323 13.0137 230.534 12.7791 229.659 12.7791C228.955 12.7791 228.401 12.9391 227.995 13.2591C227.59 13.5791 227.387 13.9951 227.387 14.5071C227.387 14.8271 227.473 15.1044 227.643 15.3391C227.814 15.5737 228.049 15.7657 228.347 15.9151C228.667 16.0644 229.03 16.2031 229.435 16.3311L232.219 17.1631C233.649 17.5897 234.747 18.2297 235.515 19.0831C236.305 19.9364 236.699 20.9817 236.699 22.2191C236.699 23.2644 236.422 24.1924 235.867 25.0031C235.313 25.7924 234.545 26.4111 233.563 26.8591C232.582 27.3071 231.43 27.5311 230.107 27.5311Z" fill="url(#paint0_linear_99_226)"/>
<defs>
<linearGradient id="paint0_linear_99_226" x1="13" y1="14.7941" x2="239" y2="14.7941" gradientUnits="userSpaceOnUse">
<stop stop-color="#333399"/>
<stop offset="1" stop-color="#0078FF"/>
</linearGradient>
</defs>
</svg>
