<svg width="212" height="49" viewBox="0 0 212 49" fill="none" xmlns="http://www.w3.org/2000/svg">
<g clip-path="url(#clip0_4_5891)">
<path d="M13 5.5H5V13.5H13V5.5ZM11 11.5H7V7.5H11V11.5Z" fill="#595A5C"/>
<path d="M28 5.5H20V13.5H28V5.5ZM26 11.5H22V7.5H26V11.5Z" fill="#595A5C"/>
<path d="M35 13.5H43V5.5H35V13.5ZM37 7.5H41V11.5H37V7.5Z" fill="#595A5C"/>
<path d="M13 20.5H5V28.5H13V20.5ZM11 26.5H7V22.5H11V26.5Z" fill="#595A5C"/>
<path d="M28 20.5H20V28.5H28V20.5ZM26 26.5H22V22.5H26V26.5Z" fill="#595A5C"/>
<path d="M35 28.5H43V20.5H35V28.5ZM37 22.5H41V26.5H37V22.5Z" fill="#595A5C"/>
<path d="M13 35.5H5V43.5H13V35.5ZM11 41.5H7V37.5H11V41.5Z" fill="#595A5C"/>
<path d="M28 35.5H20V43.5H28V35.5ZM26 41.5H22V37.5H26V41.5Z" fill="#595A5C"/>
<path d="M35 43.5H43V35.5H35V43.5ZM37 37.5H41V41.5H37V37.5Z" fill="#595A5C"/>
<rect x="14" y="14.5" width="38" height="20.5" rx="10.25" fill="#8F0CED"/>
<path d="M24.176 30.5L28.288 18.58H31.104L35.216 30.5H32.848L32 27.94H27.392L26.528 30.5H24.176ZM28.016 26.02H31.376L29.392 20.084H30L28.016 26.02ZM36.5426 30.5V18.58H38.7186V30.5H36.5426Z" fill="white"/>
</g>
<path d="M68.64 17.98V30.22H66.432V17.98H68.64ZM61.416 23.092H73.656V25.108H61.416V23.092Z" fill="#595A5C"/>
<g clip-path="url(#clip1_4_5891)">
<path d="M124 6.5H112.997C112.997 6.511 113 6.521 113 6.532C113 9.293 110.761 11.532 108 11.532C105.239 11.532 103 9.293 103 6.532C103 6.521 103.003 6.511 103.003 6.5H92C89.8 6.5 88 8.3 88 10.5V18.5C88 20.7 89.8 22.5 92 22.5H93.978V38.5C93.978 40.7 95.778 42.5 97.978 42.5H118C120.2 42.5 122 40.7 122 38.5V22.5H124C126.2 22.5 128 20.7 128 18.5V10.5C128 8.3 126.2 6.5 124 6.5ZM126 18.5C126 19.603 125.103 20.5 124 20.5H120V22.5V38.5C120 39.603 119.103 40.5 118 40.5H97.978C96.875 40.5 95.978 39.603 95.978 38.5V22.5V20.5H92C90.897 20.5 90 19.603 90 18.5V10.5C90 9.397 90.897 8.5 92 8.5H101.282C102.134 11.405 104.824 13.532 108 13.532C111.177 13.532 113.866 11.405 114.718 8.5H124C125.103 8.5 126 9.397 126 10.5V18.5Z" fill="#595A5C"/>
</g>
<path d="M141.728 25.708H154.304V27.724H141.728V25.708ZM141.728 20.452H154.304V22.468H141.728V20.452Z" fill="#595A5C"/>
<g clip-path="url(#clip2_4_5891)">
<path d="M174.5 22.375C176.358 22.375 178.004 21.449 179 20.034C179.996 21.449 181.642 22.375 183.5 22.375C185.358 22.375 187.004 21.449 188 20.034C188.996 21.449 190.642 22.375 192.5 22.375C194.358 22.375 196.004 21.449 197 20.034C197.996 21.449 199.642 22.375 201.5 22.375C204.532 22.375 207 19.907 207 16.875V11C207 10.834 206.98 10.673 206.959 10.512V10.509C206.981 10.342 207 10.173 207 10C207 7.519 204.981 5.5 202.5 5.5H174.5C174.195 5.5 173.89 5.531 173.639 5.584C170.951 6.014 169 8.292 169 11V16.875C169 19.907 171.467 22.375 174.5 22.375ZM171 11C171 9.308 172.271 7.828 173.999 7.551C174.162 7.517 174.331 7.5 174.5 7.5H202.5C203.879 7.5 205 8.621 205 10C205 10.11 204.98 10.216 204.96 10.353L204.941 10.482L204.977 10.784C204.987 10.854 205 10.926 205 11V16.875C205 18.805 203.43 20.375 201.5 20.375C199.57 20.375 198 18.805 198 16.875V13.5H196V16.875C196 18.805 194.43 20.375 192.5 20.375C190.57 20.375 189 18.805 189 16.875V13.5H187V16.875C187 18.805 185.43 20.375 183.5 20.375C181.57 20.375 180 18.805 180 16.875V13.5H178V16.875C178 18.805 176.43 20.375 174.5 20.375C172.57 20.375 171 18.805 171 16.875V11Z" fill="#595A5C"/>
<path d="M205 35.5V33.5V27.5H203V33.5H185V27.5H183V33.5V35.5V41.5H173V27.5H171V43.5H205V35.5ZM185 41.5V35.5H203V41.5H185Z" fill="#595A5C"/>
</g>
<defs>
<clipPath id="clip0_4_5891">
<rect width="52" height="48" fill="white" transform="translate(0 0.5)"/>
</clipPath>
<clipPath id="clip1_4_5891">
<rect width="48" height="48" fill="white" transform="translate(84 0.5)"/>
</clipPath>
<clipPath id="clip2_4_5891">
<rect width="48" height="48" fill="white" transform="translate(164 0.5)"/>
</clipPath>
</defs>
</svg>
