<svg width="346" height="301" viewBox="0 0 346 301" fill="none" xmlns="http://www.w3.org/2000/svg">
<mask id="mask0_4_2553" style="mask-type:alpha" maskUnits="userSpaceOnUse" x="0" y="0" width="346" height="474">
<rect y="0.5" width="346" height="473.297" fill="#D9D9D9"/>
</mask>
<g mask="url(#mask0_4_2553)">
<path d="M254.391 218.85C258.398 210.791 262.406 211.737 266.368 203.677L128.321 197.464C130.437 204.668 126.971 211.917 133.184 215.473C173.195 222.604 214.045 223.742 254.391 218.85Z" fill="white"/>
<path d="M91.4906 62.9365C74.4261 48.079 59.5228 77.5238 72.3099 90.4903C90.3649 107.914 109.32 74.2822 91.4906 62.9365Z" fill="white"/>
<path d="M330.483 109.67C354.436 124.348 368.619 84.0072 347.367 74.5975C333.41 68.5644 323.594 81.2608 323.414 93.7771C323.414 90.8056 323.414 87.7891 323.414 84.7726C323.414 76.6235 323.414 71.2658 321.343 67.7991C321.034 67.2965 320.671 66.8285 320.262 66.4033C316.66 61.4058 311.257 49.1597 306.485 48.3943C291.717 47.2687 273.301 46.1431 258.488 45.0176L309.907 63.702C308.376 63.702 306.71 63.702 304.819 63.702C237.281 57.9841 172.761 58.2542 106.214 56.0031C101.711 61.5859 102.792 75.3629 102.477 81.9362C100.451 99.1798 99.3699 113.452 98.6946 127.589L99.7752 102.917C91.365 104.438 83.24 107.247 75.6868 111.246C74.7038 111.783 73.8568 112.537 73.2105 113.452C72.5998 114.646 72.3347 115.987 72.445 117.324C72.445 125.788 72.445 134.207 72.445 142.672C72.445 154.017 72.445 165.183 71.8147 176.664C71.46 178.37 71.503 180.134 71.9403 181.821C72.3775 183.507 73.1973 185.07 74.3361 186.389C75.6298 187.255 77.0844 187.852 78.6134 188.145C83.1159 189.315 91.4005 190.486 95.9931 191.611L98.3344 136.864C97.704 153.702 97.5239 170.676 96.7585 191.972C172.22 194.583 239.893 205.478 316.795 200.211C318.416 191.836 319.677 182.877 320.713 173.602L319.182 193.817C330.168 192.287 343.585 197.419 344.846 189.765C346.099 170.673 346.384 151.528 345.701 132.407C345.701 121.331 333.365 121.961 323.549 123.402V125.608C323.549 115.253 323.549 105.033 323.549 95.1278C323.575 97.9106 324.209 100.654 325.407 103.166C326.604 105.678 328.337 107.898 330.483 109.67Z" fill="white"/>
<path d="M258.263 60.2352C257.182 46.3232 256.102 28.9444 255.021 15.2125C255.093 13.0025 254.581 10.8127 253.535 8.86429C252.407 7.20597 250.851 5.88365 249.033 5.03736L150.653 2.47107C150.032 2.40061 149.403 2.4603 148.806 2.64633C148.209 2.83237 147.658 3.14068 147.187 3.55161C146.607 4.30999 146.249 5.21369 146.151 6.16293C142.944 22.8556 141.077 39.7781 140.568 56.7684L258.263 60.2352Z" fill="white"/>
<path d="M105.989 56.228L144.35 16.1128C131.653 28.449 117.92 42.8112 105.989 56.228Z" fill="white"/>
<path d="M253.266 247.845C248.178 238.21 221.748 241.136 194.733 240.596C155.156 241.947 138.407 227.089 139.442 257.3C138.563 283.66 139.556 310.05 142.414 336.269C152.275 341.537 164.927 334.829 176.003 335.504C199.146 336.9 224.72 345.364 246.962 335.279C269.429 314.568 262.451 273.868 253.266 247.845Z" fill="white"/>
<path d="M124.134 259.866C124.134 255.994 124.494 252.212 124.764 248.475C121.948 247.605 118.935 247.605 116.119 248.475C113.915 249.16 111.908 250.364 110.266 251.987C106.558 255.805 104.518 260.938 104.593 266.259C100.541 282.197 96.3984 297.775 102.657 314.028C105.69 316.882 109.468 318.819 113.555 319.616C117.643 320.413 121.872 320.036 125.755 318.53C123.815 299.039 123.274 279.434 124.134 259.866Z" fill="white"/>
<path d="M85.5473 292.867C63.0348 284.403 68.1227 307.409 69.9687 321.457C86.9431 347.615 105.133 337.665 94.6424 307.95C90.5451 290.661 85.5473 292.867 85.5473 292.867Z" fill="white"/>
<path d="M57.587 243.928C54.331 236.95 51.636 229.723 49.5276 222.317L31.5176 227.9C32.7333 228.62 37.4158 246.314 43.044 248.34C45.4753 248.655 47.8166 249.195 48.7621 251.762C60.3786 278.775 64.746 285.619 66.2318 285.169C66.9256 284.707 67.5606 284.163 68.1229 283.548C69.0214 282.618 69.7935 281.573 70.4191 280.441C72.8505 276.209 59.5231 248.16 57.587 243.928Z" fill="white"/>
<path d="M49.8877 208.81C44.3809 194.18 36.9624 180.343 27.8255 167.659L22.1523 169.37L29.6265 181.211L25.124 182.337L17.6949 170.586L11.7966 171.981L18.8205 184.318L14.318 185.533L7.38416 173.512L1.89111 175.358C2.52146 176.304 18.01 212.097 23.413 222.317L50.428 212.952C50.4507 211.552 50.2687 210.157 49.8877 208.81Z" fill="white"/>
<path d="M278.704 295.614L319.227 292.057C320.983 282.242 322.063 273.102 322.739 264.773C323.189 258.83 323.099 257.209 322.199 255.318C317.336 245.278 294.733 241.271 282.171 251.446C277.834 255.106 274.788 260.062 273.482 265.584C273.47 271.989 274.165 278.375 275.553 284.628C276.355 288.357 277.408 292.027 278.704 295.614Z" fill="white"/>
<path d="M102.251 82.1611C97.3437 124.077 98.0191 149.29 96.4883 192.196C171.95 194.808 239.623 205.703 316.525 200.436C323.189 165.723 324.179 121.781 323.234 84.8624C323.234 67.9339 323.234 62.3511 304.594 63.9269C237.056 58.209 172.535 58.4792 105.989 56.228C101.441 61.8108 102.567 75.5878 102.251 82.1611Z" stroke="#808080" stroke-width="2" stroke-linejoin="bevel"/>
<path d="M128.321 197.464C130.437 204.668 126.971 211.917 133.184 215.473C173.202 222.559 214.052 223.651 254.391 218.715C258.398 210.656 262.406 211.601 266.368 203.542" stroke="#808080" stroke-width="2" stroke-linejoin="bevel"/>
<path d="M91.4906 62.9365C74.4261 48.079 59.5228 77.5238 72.3099 90.4903C90.3649 107.914 109.32 74.2822 91.4906 62.9365Z" stroke="#808080" stroke-width="2" stroke-linejoin="bevel"/>
<path d="M347.368 74.5973C326.746 65.5928 315.04 97.6489 330.483 109.67C354.437 124.347 368.62 84.0071 347.368 74.5973Z" stroke="#808080" stroke-width="2" stroke-linejoin="bevel"/>
<path d="M258.263 60.2352C257.182 46.3231 256.102 28.9444 255.021 15.2125C255.093 13.0025 254.581 10.8127 253.535 8.86429C252.407 7.20597 250.851 5.88365 249.033 5.03736L150.653 2.47107C150.032 2.40061 149.403 2.4603 148.806 2.64633C148.209 2.83237 147.658 3.14068 147.187 3.55161C146.607 4.30999 146.249 5.21369 146.151 6.16293C142.944 22.8556 141.077 39.7781 140.568 56.7684" stroke="#808080" stroke-width="2" stroke-linejoin="bevel"/>
<path d="M144.35 16.1128C131.653 28.449 117.92 42.8112 105.989 56.228" stroke="#808080" stroke-width="2" stroke-linejoin="bevel"/>
<path d="M172.401 15.3476C165.962 2.24596 149.213 14.6722 151.914 25.3426C160.334 37.4087 175.237 29.3046 172.401 15.3476Z" stroke="#808080" stroke-width="2" stroke-linejoin="bevel"/>
<path d="M239.488 14.8072C229.267 8.90922 217.246 24.7572 228.817 32.0509C239.218 38.5341 249.844 21.0203 239.488 14.8072Z" stroke="#808080" stroke-width="2" stroke-linejoin="bevel"/>
<path d="M167.313 39.4346C162.079 40.0647 156.788 40.0647 151.554 39.4346L151.014 49.2495" stroke="#808080" stroke-width="2" stroke-linejoin="bevel"/>
<path d="M323.55 123.402C333.365 122.141 345.702 121.511 345.702 132.407C346.385 151.528 346.099 170.673 344.846 189.765C343.586 197.419 330.168 192.287 319.182 193.818" stroke="#808080" stroke-width="2" stroke-linejoin="bevel"/>
<path d="M258.263 45.2427C273.076 46.3682 291.492 47.4938 306.26 48.6194C311.303 49.4748 317.786 64.7375 321.208 68.1142" stroke="#808080" stroke-width="2" stroke-linejoin="bevel"/>
<path d="M139.577 257.48C138.697 283.84 139.69 310.23 142.549 336.449C152.409 341.717 165.061 335.009 176.137 335.684C199.28 337.08 224.854 345.544 247.097 335.459C269.609 314.568 262.585 273.868 253.4 248.025C248.312 238.39 221.883 241.316 194.868 240.776C155.156 242.127 138.407 227.314 139.577 257.48Z" stroke="#808080" stroke-width="2" stroke-linejoin="bevel"/>
<path d="M124.764 248.475C121.948 247.605 118.935 247.605 116.119 248.475C113.915 249.16 111.908 250.364 110.266 251.987C106.558 255.805 104.518 260.938 104.593 266.259C100.541 282.197 96.3984 297.775 102.657 314.028C105.69 316.882 109.468 318.819 113.555 319.616C117.643 320.413 121.872 320.036 125.755 318.53C123.822 299.084 123.28 279.525 124.134 260.001C124.269 255.994 124.494 252.347 124.764 248.475Z" stroke="#808080" stroke-width="2" stroke-linejoin="bevel"/>
<path d="M85.5473 292.867C63.0348 284.403 68.1227 307.409 69.9687 321.457C86.9431 347.615 105.133 337.665 94.6424 307.95C90.5451 290.661 85.5473 292.867 85.5473 292.867Z" stroke="#808080" stroke-width="2" stroke-linejoin="bevel"/>
<path d="M70.5092 280.441C72.8505 276.209 59.5231 248.16 57.587 243.928C54.331 236.95 51.636 229.723 49.5276 222.317L31.5176 227.9C32.7333 228.62 37.4158 246.314 43.044 248.34C45.4753 248.655 47.8166 249.195 48.7621 251.762C60.3786 278.775 64.746 285.619 66.2318 285.169C66.9256 284.707 67.5606 284.163 68.1229 283.548C69.0531 282.623 69.8557 281.578 70.5092 280.441V280.441Z" stroke="#808080" stroke-width="2" stroke-linejoin="bevel"/>
<path d="M23.413 222.317C18.01 212.097 2.52146 176.304 1.89111 175.358L7.38416 173.512L14.4531 185.533L18.9556 184.318L11.7966 171.981L17.6949 170.586L25.079 182.337L29.5815 181.211L22.1523 169.37L27.8255 167.659C36.9624 180.343 44.3809 194.18 49.8877 208.81C50.2535 210.159 50.4204 211.555 50.383 212.952L23.413 222.317Z" stroke="#808080" stroke-width="2" stroke-linejoin="bevel"/>
<path d="M322.063 255.318C317.201 245.278 294.598 241.271 282.036 251.446C277.699 255.106 274.653 260.062 273.346 265.584C273.335 271.989 274.03 278.375 275.417 284.628C276.263 288.36 277.362 292.03 278.704 295.614L319.227 292.057C320.983 282.242 322.063 273.102 322.739 264.773C323.054 258.83 322.964 257.209 322.063 255.318Z" stroke="#808080" stroke-width="2" stroke-linejoin="bevel"/>
<path d="M204.233 289.4C204.312 287.337 204.722 285.3 205.449 283.367C205.899 281.611 217.516 282.332 218.956 283.818C221.568 284.943 218.371 305.113 218.731 304.078C218.191 316.189 204.909 317.585 194.283 317.179C180.19 320.106 174.337 312.182 172.446 299.17C170.555 286.159 165.872 288.95 177.488 284.538C191.446 277.694 184.467 293.227 190.996 292.327C192.977 286.834 186.493 281.521 200.001 282.647C200.992 285.258 199.686 287.69 199.551 291.967C201.622 292.867 204.413 292.552 204.233 289.4Z" stroke="#808080" stroke-width="2" stroke-linejoin="bevel"/>
<path d="M99.5501 103.142C91.1399 104.662 83.0149 107.472 75.4617 111.471C74.4787 112.008 73.6316 112.762 72.9854 113.677C72.3747 114.871 72.1096 116.212 72.2199 117.549C72.2199 126.013 72.2199 134.432 72.2199 142.897C72.2199 154.242 72.2199 165.408 71.5896 176.889C71.2349 178.594 71.2779 180.359 71.7152 182.045C72.1524 183.732 72.9722 185.295 74.111 186.614C75.4047 187.48 76.8593 188.077 78.3883 188.37C82.8908 189.54 91.1754 190.711 95.768 191.836" stroke="#808080" stroke-width="2" stroke-linejoin="bevel"/>
<path d="M172.581 97.0185C138.722 84.4572 132.959 157.799 167.493 154.783C190.951 147.399 197.84 103.412 172.581 97.0185Z" stroke="#808080" stroke-width="2" stroke-miterlimit="10"/>
<path d="M213.238 102.376C181 134.613 220.892 165.408 249.708 144.022C264.251 122.006 238.947 77.7039 213.238 102.376Z" stroke="#808080" stroke-width="2" stroke-miterlimit="10"/>
<path d="M226.161 112.777C207.565 118.81 214.814 147.985 233.635 134.253C241.064 127.409 237.597 111.966 226.161 112.777Z" stroke="#808080" stroke-width="2" stroke-miterlimit="10"/>
<path d="M234.94 118.27C230.978 125.113 226.61 137.134 216.21 128.85C211.977 145.643 246.331 135.288 234.94 118.27Z" fill="#808080" stroke="#808080" stroke-width="2" stroke-miterlimit="10"/>
<path d="M172.581 116.333C170.663 114.178 167.994 112.838 165.121 112.586C162.247 112.335 159.386 113.193 157.124 114.983C154.862 116.773 153.37 119.36 152.954 122.214C152.538 125.069 153.229 127.974 154.886 130.335C164.026 140.15 180.865 127.229 172.581 116.333Z" stroke="#808080" stroke-width="2" stroke-miterlimit="10"/>
<path d="M172.175 122.412C171.16 125.186 169.324 127.586 166.911 129.291C164.498 130.996 161.623 131.926 158.668 131.956" stroke="#808080" stroke-width="2" stroke-miterlimit="10"/>
<path d="M161.685 168.02C181.586 171.711 207.61 176.124 228.727 170.181C227.196 176.934 216.93 179.906 210.717 180.491C194.418 185.533 173.076 177.339 161.685 168.02Z" fill="#808080"/>
<path d="M172.986 117.549C169.384 123.717 165.422 134.657 156.012 127.139C152.365 142.581 183.342 132.676 172.986 117.549Z" fill="#808080" stroke="#808080" stroke-width="2" stroke-miterlimit="10"/>
</g>
</svg>
