<svg width="18" height="17" viewBox="0 0 18 17" fill="none" xmlns="http://www.w3.org/2000/svg">
<path d="M15.0029 10.772L17.4823 3.33447H4.06544L3.19044 0.709473H0.6875V1.58447H2.55956L5.4685 10.3117L3.51419 14.7095H15.5625V13.8345H4.86081L6.22187 10.772H15.0029ZM16.2677 4.20947L14.3721 9.89697H6.25294L4.35725 4.20947H16.2677Z" fill="white"/>
<path d="M7.25 16.897C7.73325 16.897 8.125 16.5052 8.125 16.022C8.125 15.5387 7.73325 15.147 7.25 15.147C6.76675 15.147 6.375 15.5387 6.375 16.022C6.375 16.5052 6.76675 16.897 7.25 16.897Z" fill="white"/>
<path d="M12.5 16.897C12.9832 16.897 13.375 16.5052 13.375 16.022C13.375 15.5387 12.9832 15.147 12.5 15.147C12.0168 15.147 11.625 15.5387 11.625 16.022C11.625 16.5052 12.0168 16.897 12.5 16.897Z" fill="white"/>
</svg>
