<svg width="17" height="13" viewBox="0 0 17 13" fill="none" xmlns="http://www.w3.org/2000/svg">
<path d="M16.4166 3.08455H9.3045C9.09908 1.52299 7.6995 0.313721 5.99992 0.313721C4.30034 0.313721 2.90075 1.52299 2.69534 3.08455H0.583252V3.87622H2.69534C2.90075 5.43778 4.30034 6.64705 5.99992 6.64705C7.6995 6.64705 9.09908 5.43778 9.3045 3.87622H16.4166V3.08455ZM5.99992 5.85539C4.62159 5.85539 3.49992 4.7898 3.49992 3.48039C3.49992 2.17097 4.62159 1.10539 5.99992 1.10539C7.37825 1.10539 8.49992 2.17097 8.49992 3.48039C8.49992 4.7898 7.37825 5.85539 5.99992 5.85539Z" fill="white"/>
<path d="M16.4166 9.41781H14.3045C14.0991 7.85624 12.6995 6.64697 10.9999 6.64697C9.30033 6.64697 7.90075 7.85624 7.69534 9.41781H0.583252V10.2095H7.69534C7.90075 11.771 9.30033 12.9803 10.9999 12.9803C12.6995 12.9803 14.0991 11.771 14.3045 10.2095H16.4166V9.41781ZM10.9999 12.1886C9.62158 12.1886 8.49992 11.1231 8.49992 9.81364C8.49992 8.50422 9.62158 7.43864 10.9999 7.43864C12.3783 7.43864 13.4999 8.50422 13.4999 9.81364C13.4999 11.1231 12.3783 12.1886 10.9999 12.1886Z" fill="white"/>
</svg>
