<?xml version="1.0" encoding="UTF-8" standalone="no"?>
<svg width="190px" height="190px" viewBox="0 0 190 190" version="1.1" xmlns="http://www.w3.org/2000/svg" xmlns:xlink="http://www.w3.org/1999/xlink">
    <!-- Generator: Sketch 42 (36781) - http://www.bohemiancoding.com/sketch -->
    <title>01 DragDrop Copy 2</title>
    <desc>Created with Sketch.</desc>
    <defs>
        <ellipse id="path-1" cx="95" cy="95" rx="90" ry="90"></ellipse>
        <mask id="mask-2" maskContentUnits="userSpaceOnUse" maskUnits="objectBoundingBox" x="-3" y="-3" width="186" height="186">
            <rect x="2" y="2" width="186" height="186" fill="white"></rect>
            <use xlink:href="#path-1" fill="black"></use>
        </mask>
        <polygon id="path-3" points="31.3610212 37.2346857 0.287253881 37.2346857 0.287253881 0.172155965 31.3610212 0.172155965"></polygon>
        <mask id="mask-4" maskContentUnits="userSpaceOnUse" maskUnits="objectBoundingBox" x="-2" y="-2" width="35.0737673" height="41.0625298">
            <rect x="-1.71274612" y="-1.82784403" width="35.0737673" height="41.0625298" fill="white"></rect>
            <use xlink:href="#path-3" fill="black"></use>
        </mask>
        <polygon id="path-5" points="32.0971463 37.8771141 0.525361693 37.8771141 0.525361693 0.326919442 32.0971463 0.326919442"></polygon>
        <mask id="mask-6" maskContentUnits="userSpaceOnUse" maskUnits="objectBoundingBox" x="-2" y="-2" width="35.5717846" height="41.5501946">
            <rect x="-1.47463831" y="-1.67308056" width="35.5717846" height="41.5501946" fill="white"></rect>
            <use xlink:href="#path-5" fill="black"></use>
        </mask>
    </defs>
    <g id="04-PP:-Clothin_Retail-price" stroke="none" stroke-width="1" fill="none" fill-rule="evenodd">
        <g id="01-DragDrop-Copy-2">
            <g id="Oval-7-Copy">
                <use fill-opacity="0.5" fill="#F8F8F8" fill-rule="evenodd" xlink:href="#path-1"></use>
                <use stroke-opacity="0.1" stroke="#A0A0A0" mask="url(#mask-2)" stroke-width="6" xlink:href="#path-1"></use>
            </g>
            <g id="Group-2" transform="translate(42.000000, 34.000000)">
                <path d="M36.36,76.848 L32.136,76.848 L32.136,66.176 L36.344,66.176 C39.688,66.176 42.008,68.304 42.008,71.504 C42.008,74.736 39.688,76.848 36.36,76.848 Z M36.344,74.848 C38.456,74.848 39.688,73.328 39.688,71.504 C39.688,69.632 38.536,68.176 36.36,68.176 L34.408,68.176 L34.408,74.848 L36.344,74.848 Z M52.28,76.848 L49.656,76.848 L47.56,73.056 L45.896,73.056 L45.896,76.848 L43.624,76.848 L43.624,66.176 L48.616,66.176 C50.84,66.176 52.216,67.632 52.216,69.616 C52.216,71.488 51.016,72.512 49.864,72.784 L52.28,76.848 Z M48.296,71.056 C49.192,71.056 49.88,70.512 49.88,69.6 C49.88,68.72 49.192,68.176 48.296,68.176 L45.896,68.176 L45.896,71.056 L48.296,71.056 Z M58.984,77.04 C55.752,77.04 53.4,74.736 53.4,71.52 C53.4,68.304 55.752,66 58.984,66 C62.2,66 64.552,68.304 64.552,71.52 C64.552,74.736 62.2,77.04 58.984,77.04 Z M58.984,75.024 C60.952,75.024 62.216,73.504 62.216,71.52 C62.216,69.52 60.952,68.016 58.984,68.016 C57,68.016 55.736,69.52 55.736,71.52 C55.736,73.504 57,75.024 58.984,75.024 Z M68.424,76.848 L66.152,76.848 L66.152,66.176 L71.144,66.176 C73.464,66.176 74.728,67.744 74.728,69.616 C74.728,71.472 73.448,73.04 71.144,73.04 L68.424,73.04 L68.424,76.848 Z M70.824,71.04 C71.72,71.04 72.408,70.496 72.408,69.616 C72.408,68.72 71.72,68.176 70.824,68.176 L68.424,68.176 L68.424,71.04 L70.824,71.04 Z M6.368,95.848 L4.096,95.848 L4.096,91.48 L0,85.176 L2.592,85.176 L5.232,89.448 L7.872,85.176 L10.448,85.176 L6.368,91.48 L6.368,95.848 Z M15.872,96.04 C12.64,96.04 10.288,93.736 10.288,90.52 C10.288,87.304 12.64,85 15.872,85 C19.088,85 21.44,87.304 21.44,90.52 C21.44,93.736 19.088,96.04 15.872,96.04 Z M15.872,94.024 C17.84,94.024 19.104,92.504 19.104,90.52 C19.104,88.52 17.84,87.016 15.872,87.016 C13.888,87.016 12.624,88.52 12.624,90.52 C12.624,92.504 13.888,94.024 15.872,94.024 Z M27.856,96.04 C31.104,96.04 32.672,94.216 32.672,91.576 L32.672,85.176 L30.352,85.176 L30.352,91.512 C30.352,93 29.504,94.024 27.856,94.024 C26.208,94.024 25.344,93 25.344,91.512 L25.344,85.176 L23.04,85.176 L23.04,91.576 C23.04,94.216 24.608,96.04 27.856,96.04 Z M43.44,95.848 L40.816,95.848 L38.72,92.056 L37.056,92.056 L37.056,95.848 L34.784,95.848 L34.784,85.176 L39.776,85.176 C42,85.176 43.376,86.632 43.376,88.616 C43.376,90.488 42.176,91.512 41.024,91.784 L43.44,95.848 Z M39.456,90.056 C40.352,90.056 41.04,89.512 41.04,88.6 C41.04,87.72 40.352,87.176 39.456,87.176 L37.056,87.176 L37.056,90.056 L39.456,90.056 Z M53.408,95.848 L49.184,95.848 L49.184,85.176 L53.392,85.176 C56.736,85.176 59.056,87.304 59.056,90.504 C59.056,93.736 56.736,95.848 53.408,95.848 Z M53.392,93.848 C55.504,93.848 56.736,92.328 56.736,90.504 C56.736,88.632 55.584,87.176 53.408,87.176 L51.456,87.176 L51.456,93.848 L53.392,93.848 Z M68.224,95.848 L68.224,93.848 L62.944,93.848 L62.944,91.416 L68.112,91.416 L68.112,89.416 L62.944,89.416 L62.944,87.176 L68.224,87.176 L68.224,85.176 L60.672,85.176 L60.672,95.848 L68.224,95.848 Z M73.808,96.04 C76.672,96.04 78.08,94.568 78.08,92.616 C78.08,88.632 71.952,89.768 71.952,88.088 C71.952,87.448 72.496,87.032 73.456,87.032 C74.544,87.032 75.696,87.4 76.56,88.2 L77.824,86.504 C76.768,85.528 75.36,85.016 73.664,85.016 C71.152,85.016 69.616,86.488 69.616,88.264 C69.616,92.28 75.76,90.984 75.76,92.84 C75.76,93.464 75.168,94.024 73.904,94.024 C72.432,94.024 71.264,93.352 70.512,92.568 L69.264,94.344 C70.272,95.352 71.744,96.04 73.808,96.04 Z M81.872,95.848 L81.872,85.176 L79.6,85.176 L79.6,95.848 L81.872,95.848 Z M89.168,96.04 C91.088,96.04 92.608,95.256 93.696,94.04 L93.696,89.944 L88.608,89.944 L88.608,91.928 L91.424,91.928 L91.424,93.208 C90.992,93.608 90.112,94.024 89.168,94.024 C87.216,94.024 85.808,92.536 85.808,90.52 C85.808,88.504 87.216,87.016 89.168,87.016 C90.288,87.016 91.2,87.656 91.696,88.408 L93.568,87.384 C92.768,86.12 91.376,85 89.168,85 C86.032,85 83.472,87.144 83.472,90.52 C83.472,93.88 86.032,96.04 89.168,96.04 Z M105.056,95.848 L105.056,85.176 L102.784,85.176 L102.784,91.88 L97.84,85.176 L95.504,85.176 L95.504,95.848 L97.776,95.848 L97.776,88.888 L102.864,95.848 L105.056,95.848 Z M43.424,114.848 L43.424,104.176 L41.136,104.176 L41.136,108.368 L36.096,108.368 L36.096,104.176 L33.824,104.176 L33.824,114.848 L36.096,114.848 L36.096,110.352 L41.136,110.352 L41.136,114.848 L43.424,114.848 Z M53.072,114.848 L53.072,112.848 L47.792,112.848 L47.792,110.416 L52.96,110.416 L52.96,108.416 L47.792,108.416 L47.792,106.176 L53.072,106.176 L53.072,104.176 L45.52,104.176 L45.52,114.848 L53.072,114.848 Z M63.504,114.848 L60.88,114.848 L58.784,111.056 L57.12,111.056 L57.12,114.848 L54.848,114.848 L54.848,104.176 L59.84,104.176 C62.064,104.176 63.44,105.632 63.44,107.616 C63.44,109.488 62.24,110.512 61.088,110.784 L63.504,114.848 Z M59.52,109.056 C60.416,109.056 61.104,108.512 61.104,107.6 C61.104,106.72 60.416,106.176 59.52,106.176 L57.12,106.176 L57.12,109.056 L59.52,109.056 Z M72.688,114.848 L72.688,112.848 L67.408,112.848 L67.408,110.416 L72.576,110.416 L72.576,108.416 L67.408,108.416 L67.408,106.176 L72.688,106.176 L72.688,104.176 L65.136,104.176 L65.136,114.848 L72.688,114.848 Z" id="DROP-YOUR-DESIGN-HER-Copy" fill="#222222"></path>
                <g id="Bildes" transform="translate(19.000000, 0.000000)">
                    <g id="Page-1" transform="translate(22.796178, 24.597104) rotate(-25.000000) translate(-22.796178, -24.597104) translate(6.796178, 5.597104)">
                        <g id="Stroke-1-Copy">
                            <use fill="#FFFFFF" fill-rule="evenodd" xlink:href="#path-3"></use>
                            <use stroke="#231F20" mask="url(#mask-4)" stroke-width="4" xlink:href="#path-3"></use>
                        </g>
                        <polygon id="Fill-3-Copy" fill="#F8F8F8" points="28.1462678 27.8805092 3.28725388 27.8805092 3.28725388 3.17215597 28.1462678 3.17215597"></polygon>
                        <polygon id="Fill-4-Copy" fill="#F3CA90" points="28.1462678 20.2023708 21.9315143 12.172156 13.8523348 22.0554972 8.25905666 17.1138266 3.28725388 22.0554972 3.28725388 28.2325855 28.1462678 28.2325855"></polygon>
                        <path d="M11.016106,11.0252825 C11.016106,12.048826 10.1814646,12.8784089 9.15167992,12.8784089 C8.12189527,12.8784089 7.28725388,12.048826 7.28725388,11.0252825 C7.28725388,10.0017389 8.12189527,9.17215597 9.15167992,9.17215597 C10.1814646,9.17215597 11.016106,10.0017389 11.016106,11.0252825" id="Fill-5-Copy" fill="#F3CA90"></path>
                    </g>
                    <g id="Page-1-Copy" transform="translate(45.442143, 26.592209) rotate(-335.000000) translate(-45.442143, -26.592209) translate(28.942143, 7.592209)">
                        <g id="Stroke-1-Copy-2">
                            <use fill="#FFFFFF" fill-rule="evenodd" xlink:href="#path-5"></use>
                            <use stroke="#231F20" mask="url(#mask-6)" stroke-width="4" xlink:href="#path-5"></use>
                        </g>
                        <polygon id="Fill-3-Copy-2" fill="#F8F8F8" points="29.7827894 29.3603825 4.52536169 29.3603825 4.52536169 4.32691944 29.7827894 4.32691944"></polygon>
                        <polygon id="Fill-4-Copy-2" fill="#F3CA90" points="29.7827894 21.4627949 23.4684325 13.3269194 15.2597685 23.3403047 9.57684723 18.3336121 4.52536169 23.3403047 4.52536169 29.5986705 29.7827894 29.5986705"></polygon>
                        <path d="M12.3139758,12.2044292 C12.3139758,13.2414404 11.4659577,14.0819389 10.4196688,14.0819389 C9.37337983,14.0819389 8.52536169,13.2414404 8.52536169,12.2044292 C8.52536169,11.167418 9.37337983,10.3269194 10.4196688,10.3269194 C11.4659577,10.3269194 12.3139758,11.167418 12.3139758,12.2044292" id="Fill-5-Copy-2" fill="#F3CA90"></path>
                    </g>
                </g>
            </g>
        </g>
    </g>
</svg>