<?xml version="1.0" encoding="UTF-8"?>
<svg width="156px" height="156px" viewBox="0 0 156 156" version="1.1" xmlns="http://www.w3.org/2000/svg" xmlns:xlink="http://www.w3.org/1999/xlink">
    <title>EN-tap-to-design</title>
    <defs>
        <rect id="path-1" x="0.23992158" y="0.140691891" width="29.2944822" height="33.5577383"></rect>
        <polygon id="path-3" points="27.8639541 32.06396 1.91037129 32.06396 1.91037129 1.77516197 27.8639541 1.77516197"></polygon>
        <rect id="path-5" x="0.438795141" y="0.267170022" width="29.7104386" height="33.956275"></rect>
        <polygon id="path-7" points="28.4787841 32.588975 2.10924485 32.588975 2.10924485 1.90164011 28.4787841 1.90164011"></polygon>
    </defs>
    <g id="Symbols" stroke="none" stroke-width="1" fill="none" fill-rule="evenodd">
        <g id="tap-to">
            <g id="Oval-7-Copy">
                <circle id="path-1" fill-opacity="0.5" fill="#F8F8F8" cx="78" cy="78" r="75"></circle>
                <path d="M78,0 C34.9217895,0 0,34.9217895 0,78 C0,121.07821 34.9217895,156 78,156 C121.07821,156 156,121.07821 156,78 C156,34.9217895 121.07821,0 78,0 Z M78,6 C117.764502,6 150,38.235498 150,78 C150,117.764502 117.764502,150 78,150 C38.235498,150 6,117.764502 6,78 C6,38.235498 38.235498,6 78,6 Z" id="path-1" fill-opacity="0.1" fill="#A0A0A0" fill-rule="nonzero"></path>
            </g>
            <g id="Group-2" transform="translate(27.000000, 39.000000)">
                <path d="M5.066,70 L5.066,62.412 L7.782,62.412 L7.782,60.662 L0.334,60.662 L0.334,62.412 L3.064,62.412 L3.064,70 L5.066,70 Z M9.434,70 L10.022,68.418 L14.026,68.418 L14.614,70 L16.868,70 L13.27,60.662 L10.778,60.662 L7.18,70 L9.434,70 Z M13.48,66.668 L10.568,66.668 L12.024,62.65 L13.48,66.668 Z M19.724,70 L19.724,66.668 L22.104,66.668 C24.12,66.668 25.24,65.296 25.24,63.672 C25.24,62.034 24.134,60.662 22.104,60.662 L17.736,60.662 L17.736,70 L19.724,70 Z M21.824,64.918 L19.724,64.918 L19.724,62.412 L21.824,62.412 C22.608,62.412 23.21,62.888 23.21,63.672 C23.21,64.442 22.608,64.918 21.824,64.918 Z M34.242,70 L34.242,62.412 L36.958,62.412 L36.958,60.662 L29.51,60.662 L29.51,62.412 L32.24,62.412 L32.24,70 L34.242,70 Z M42.334,70.168 C45.148,70.168 47.206,68.152 47.206,65.338 C47.206,62.524 45.148,60.508 42.334,60.508 C39.506,60.508 37.448,62.524 37.448,65.338 C37.448,68.152 39.506,70.168 42.334,70.168 Z M42.334,68.404 C40.598,68.404 39.492,67.074 39.492,65.338 C39.492,63.588 40.598,62.272 42.334,62.272 C44.056,62.272 45.162,63.588 45.162,65.338 C45.162,67.074 44.056,68.404 42.334,68.404 Z M55.9,70 C58.812,70 60.842,68.152 60.842,65.324 C60.842,62.524 58.812,60.662 55.886,60.662 L52.204,60.662 L52.204,70 L55.9,70 Z M55.886,68.25 L54.192,68.25 L54.192,62.412 L55.9,62.412 C57.804,62.412 58.812,63.686 58.812,65.324 C58.812,66.92 57.734,68.25 55.886,68.25 Z M68.864,70 L68.864,68.25 L64.244,68.25 L64.244,66.122 L68.766,66.122 L68.766,64.372 L64.244,64.372 L64.244,62.412 L68.864,62.412 L68.864,60.662 L62.256,60.662 L62.256,70 L68.864,70 Z M73.75,70.168 C76.256,70.168 77.488,68.88 77.488,67.172 C77.488,63.686 72.126,64.68 72.126,63.21 C72.126,62.65 72.602,62.286 73.442,62.286 C74.394,62.286 75.402,62.608 76.158,63.308 L77.264,61.824 C76.34,60.97 75.108,60.522 73.624,60.522 C71.426,60.522 70.082,61.81 70.082,63.364 C70.082,66.878 75.458,65.744 75.458,67.368 C75.458,67.914 74.94,68.404 73.834,68.404 C72.546,68.404 71.524,67.816 70.866,67.13 L69.774,68.684 C70.656,69.566 71.944,70.168 73.75,70.168 Z M80.806,70 L80.806,60.662 L78.818,60.662 L78.818,70 L80.806,70 Z M87.19,70.168 C88.87,70.168 90.2,69.482 91.152,68.418 L91.152,64.834 L86.7,64.834 L86.7,66.57 L89.164,66.57 L89.164,67.69 C88.786,68.04 88.016,68.404 87.19,68.404 C85.482,68.404 84.25,67.102 84.25,65.338 C84.25,63.574 85.482,62.272 87.19,62.272 C88.17,62.272 88.968,62.832 89.402,63.49 L91.04,62.594 C90.34,61.488 89.122,60.508 87.19,60.508 C84.446,60.508 82.206,62.384 82.206,65.338 C82.206,68.278 84.446,70.168 87.19,70.168 Z M94.722,70 L94.722,63.91 L99.174,70 L101.092,70 L101.092,60.662 L99.104,60.662 L99.104,66.528 L94.778,60.662 L92.734,60.662 L92.734,70 L94.722,70 Z" id="TAPTODESIGN" fill="#222222" fill-rule="nonzero"></path>
                <g id="Bildes" transform="translate(20.000000, 0.000000)">
                    <g id="Page-1" transform="translate(21.444405, 21.866072) rotate(-25.000000) translate(-21.444405, -21.866072) translate(6.444405, 4.866072)">
                        <g id="Stroke-1-Copy" transform="translate(0.000000, -0.000000)">
                            <g id="path-3-link" transform="translate(1.670450, 1.634470)" fill="#FFFFFF">
                                <polygon id="path-3" points="26.1935044 30.4294899 0.239921581 30.4294899 0.239921581 0.140691887 26.1935044 0.140691887"></polygon>
                            </g>
                            <g id="path-3-Clipped">
                                <mask id="mask-2" fill="white">
                                    <use xlink:href="#path-1"></use>
                                </mask>
                                <g id="Rectangle"></g>
                                <polygon id="path-3" stroke="#231F20" stroke-width="2" mask="url(#mask-2)" points="27.8639541 32.06396 1.91037129 32.06396 1.91037129 1.77516197 27.8639541 1.77516197"></polygon>
                                <mask id="mask-4" fill="white">
                                    <use xlink:href="#path-3"></use>
                                </mask>
                                <g id="path-3"></g>
                            </g>
                        </g>
                        <polygon id="Fill-3-Copy" fill="#F8F8F8" points="25.1789121 24.4193992 4.41604585 24.4193992 4.41604585 4.2268671 25.1789121 4.2268671"></polygon>
                        <polygon id="Fill-4-Copy" fill="#F3CA90" points="25.1789121 18.1445554 19.9881956 11.5819825 13.240264 19.6589953 8.56861911 15.6204889 4.41604585 19.6589953 4.41604585 24.7071283 25.1789121 24.7071283"></polygon>
                        <path d="M10.8713752,10.6447173 C10.8713752,11.4811929 10.174262,12.1591571 9.31416024,12.1591571 C8.45405851,12.1591571 7.75694527,11.4811929 7.75694527,10.6447173 C7.75694527,9.80824159 8.45405851,9.13027735 9.31416024,9.13027735 C10.174262,9.13027735 10.8713752,9.80824159 10.8713752,10.6447173" id="Fill-5-Copy" fill="#F3CA90"></path>
                    </g>
                    <g id="Page-1-Copy" transform="translate(40.360882, 23.958035) rotate(25.000000) translate(-40.360882, -23.958035) translate(24.860882, 6.458035)">
                        <g id="Stroke-1-Copy-2" transform="translate(0.000000, 0.000000)">
                            <g id="path-5-link" transform="translate(1.670450, 1.634470)" fill="#FFFFFF">
                                <polygon id="path-5" points="26.8083344 30.9545049 0.438795144 30.9545049 0.438795144 0.267170024 26.8083344 0.267170024"></polygon>
                            </g>
                            <g id="path-5-link" transform="translate(0.000000, -0.000000)">
                                <g id="path-5-Clipped" transform="translate(0.000000, 0.000000)">
                                    <mask id="mask-6" fill="white">
                                        <use xlink:href="#path-5"></use>
                                    </mask>
                                    <g id="Rectangle"></g>
                                    <polygon id="path-5" stroke="#231F20" stroke-width="2" mask="url(#mask-6)" points="28.4787841 32.588975 2.10924485 32.588975 2.10924485 1.90164011 28.4787841 1.90164011"></polygon>
                                    <mask id="mask-8" fill="white">
                                        <use xlink:href="#path-7"></use>
                                    </mask>
                                    <g id="path-5"></g>
                                </g>
                            </g>
                        </g>
                        <polygon id="Fill-3-Copy-2" fill="#F8F8F8" points="26.5457757 25.6288035 5.45014427 25.6288035 5.45014427 5.17058027 26.5457757 5.17058027"></polygon>
                        <polygon id="Fill-4-Copy-2" fill="#F3CA90" points="26.5457757 19.1746182 21.2718678 12.5256956 14.4157876 20.708985 9.66927054 16.6173403 5.45014427 20.708985 5.45014427 25.8235408 26.5457757 25.8235408"></polygon>
                        <path d="M11.9553884,11.6083573 C11.9553884,12.4558392 11.2471026,13.142724 10.3732161,13.142724 C9.49932951,13.142724 8.79104369,12.4558392 8.79104369,11.6083573 C8.79104369,10.7608754 9.49932951,10.0739905 10.3732161,10.0739905 C11.2471026,10.0739905 11.9553884,10.7608754 11.9553884,11.6083573" id="Fill-5-Copy-2" fill="#F3CA90"></path>
                    </g>
                </g>
            </g>
        </g>
    </g>
</svg>